:version 1.10
:name ASF
:units
  mass 1
  length 1
  angle deg
:documentation
  ASF file generated by Kaydara
:root
  axis xyz
  order  tx ty tz rx ry rz
  position 0 0 0
  orientation 0 0 0
:bonedata
  begin
    id 1
    name SpineDummy
    direction 0.999998 -0.00179978 1.38929e-006
    length 3.60008
    axis 0 0 0 xyz
  end
  begin
    id 2
    name Spine
    direction 0.964365 0.262802 0.0305839
    length 8.13928
    axis 1.33928 -1.75354 15.2838 xyz
    dof rx ry rz
  end
  begin
    id 3
    name Spine1
    direction 0.811168 0.572065 0.12144
    length 7.14954
    axis 2.2224 -6.9761 35.2157 xyz
    dof rx ry rz
  end
  begin
    id 4
    name Neck
    direction 0 0 0
    length 0
    axis 2.2224 -6.9761 35.2157 xyz
    dof rx ry rz
  end
  begin
    id 5
    name HeadDummy
    direction 0.810939 0.572387 0.121455
    length 3.55534
    axis 2.2224 -6.9761 35.2157 xyz
  end
  begin
    id 6
    name Head
    direction 0.998226 -0.000232542 0.0595419
    length 7.35666
    axis -3.03688 -3.41352 -0.0133467 xyz
    dof rx ry rz
  end
  begin
    id 7
    name R_ClavicleDummy
    direction 0.531669 -0.194489 -0.824319
    length 2.49392
    axis 2.2224 -6.9761 35.2157 xyz
  end
  begin
    id 8
    name R_Clavicle
    direction -0.155119 0.0480802 -0.986725
    length 4.485
    axis -54.2764 80.6538 162.779 xyz
    dof rx ry rz
  end
  begin
    id 9
    name R_UpperArm
    direction -0.955567 0.200068 -0.216484
    length 10.1122
    axis -72.9943 12.5026 168.175 xyz
    dof rx ry rz
  end
  begin
    id 10
    name R_Forearm
    direction -0.61433 0.385743 0.688332
    length 9.39148
    axis -117.015 -43.4982 147.875 xyz
    dof rx ry rz
  end
  begin
    id 11
    name R_Hand
    direction -0.699429 0.0170333 0.714499
    length 3.66324
    axis -45.0303 -36.7097 175.478 xyz
    dof rx ry rz
  end
  begin
    id 12
    name L_ClavicleDummy
    direction 0.40287 -0.36502 0.839319
    length 2.49392
    axis 2.2224 -6.9761 35.2157 xyz
  end
  begin
    id 13
    name L_Clavicle
    direction -0.231271 -0.0726419 0.970174
    length 4.485
    axis 18.4357 -75.9711 -162.563 xyz
    dof rx ry rz
  end
  begin
    id 14
    name L_UpperArm
    direction -0.917494 0.144359 0.370629
    length 10.1122
    axis 56.0417 -21.7544 171.058 xyz
    dof rx ry rz
  end
  begin
    id 15
    name L_Forearm
    direction -0.496786 0.615074 -0.612281
    length 9.39148
    axis 89.8094 37.7546 128.927 xyz
    dof rx ry rz
  end
  begin
    id 16
    name L_Hand
    direction -0.409932 0.64962 -0.640274
    length 3.66324
    axis -0.424369 32.133 128.52 xyz
    dof rx ry rz
  end
  begin
    id 17
    name L_ThighDummy
    direction -1.84081e-006 1.87549e-006 1
    length 3.13049
    axis 0 0 0 xyz
  end
  begin
    id 18
    name L_Thigh
    direction -0.947739 0.307978 0.083308
    length 17.9961
    axis 173.219 -4.77873 161.998 xyz
    dof rx ry rz
  end
  begin
    id 19
    name L_Calf
    direction -0.728814 -0.684427 0.0197583
    length 13.3367
    axis 167.331 -1.13214 -136.799 xyz
    dof rx ry rz
  end
  begin
    id 20
    name L_Foot
    direction -0.9028 0.418719 0.0981191
    length 5.8674
    axis 163.436 11.5135 -155.37 xyz
    dof rx ry rz
  end
  begin
    id 21
    name L_Toe0
    direction -0.35341 0.886259 0.299411
    length 4.75286
    axis 169.316 -17.4222 111.74 xyz
    dof rx ry rz
  end
  begin
    id 22
    name R_ThighDummy
    direction 9.32778e-007 -8.82053e-007 -1
    length 3.13049
    axis 0 0 0 xyz
  end
  begin
    id 23
    name R_Thigh
    direction -0.925064 0.37528 -0.0585023
    length 17.9961
    axis -178.698 3.35385 157.919 xyz
    dof rx ry rz
  end
  begin
    id 24
    name R_Calf
    direction -0.68969 -0.718776 -0.0876886
    length 13.3367
    axis -160.504 5.03065 -133.817 xyz
    dof rx ry rz
  end
  begin
    id 25
    name R_Foot
    direction -0.857405 0.418858 -0.299022
    length 5.8674
    axis -161.328 4.38911 -154.413 xyz
    dof rx ry rz
  end
  begin
    id 26
    name R_Toe0
    direction -0.100745 0.952789 -0.286433
    length 4.75286
    axis 171.683 16.6445 96.0359 xyz
    dof rx ry rz
  end
:hierarchy
  begin
    root SpineDummy L_ThighDummy R_ThighDummy
    SpineDummy Spine
    Spine Spine1
    Spine1 Neck
    Neck HeadDummy R_ClavicleDummy L_ClavicleDummy
    HeadDummy Head
    R_ClavicleDummy R_Clavicle
    R_Clavicle R_UpperArm
    R_UpperArm R_Forearm
    R_Forearm R_Hand
    L_ClavicleDummy L_Clavicle
    L_Clavicle L_UpperArm
    L_UpperArm L_Forearm
    L_Forearm L_Hand
    L_ThighDummy L_Thigh
    L_Thigh L_Calf
    L_Calf L_Foot
    L_Foot L_Toe0
    R_ThighDummy R_Thigh
    R_Thigh R_Calf
    R_Calf R_Foot
    R_Foot R_Toe0
  end

:SAMPLES-PER-SECOND 30
:FULLY-SPECIFIED
:DEGREES
43
root  -5.67864 32.1403 -45.7275 97.6508 9.60427 88.657
Spine  0.147071 5.19409 -6.92393
Spine1  0.191241 -0.459989 -0.151453
Neck  3.97569e-016 0 -2.38542e-015
Head  7.92777 -3.66967 23.3151
R_Clavicle  0.212476 -6.43682 0.668535
R_UpperArm  -3.07571 6.07508 -7.70881
R_Forearm  10.2028 -11.3276 9.60812
R_Hand  0.494809 8.30931 -7.6776
L_Clavicle  -0.433699 15.6561 -2.87401
L_UpperArm  18.9464 3.88561 2.08298
L_Forearm  3.24049 4.91977 5.70169
L_Hand  0.482021 1.47928 7.78978
L_Thigh  -4.89448 8.94294 0.576349
L_Calf  0.387693 -1.02501 7.00329
L_Foot  1.89615 9.03004 -1.12624
L_Toe0  -1.49206 0.131131 -3.02337
R_Thigh  8.29393 -0.243978 -20.976
R_Calf  -1.89402 8.35725 27.485
R_Foot  0.462133 3.62193 7.19653
R_Toe0  -1.72253 -0.271617 -17.286
44
root  -5.7768 32.5187 -44.7789 100.133 9.14414 88.1772
Spine  1.03374 6.34651 -8.34367
Spine1  0.96982 -3.0508 -0.351367
Neck  3.97569e-016 0 -2.38542e-015
Head  3.60025 -2.24391 24.2304
R_Clavicle  0.168909 -5.14908 0.489209
R_UpperArm  -9.03326 6.93112 -8.60775
R_Forearm  14.6148 -19.1988 16.6072
R_Hand  0.195117 7.93567 -9.65286
L_Clavicle  -0.433578 15.6562 -2.93373
L_UpperArm  20.7105 4.82912 0.915678
L_Forearm  4.12064 6.47976 7.53545
L_Hand  0.414826 3.61784 5.25805
L_Thigh  -5.49934 9.31161 -0.0751429
L_Calf  1.72806 -2.70754 19.6744
L_Foot  1.78504 9.38669 -1.81293
L_Toe0  0.705742 0.0236289 -6.41448
R_Thigh  9.65712 0.977896 -24.7682
R_Calf  0.059801 10.0705 32.6605
R_Foot  0.0069132 1.98039 5.76233
R_Toe0  -1.35188 -0.265039 -17.0754
45
root  -5.79038 32.6159 -43.8264 102.514 8.82989 87.6491
Spine  1.65281 7.86532 -9.76133
Spine1  1.48529 -5.72277 0.244728
Neck  3.97569e-016 0 -2.38542e-015
Head  0.11629 -1.52011 24.2371
R_Clavicle  0.117201 -3.58733 0.312878
R_UpperArm  -9.2407 7.43535 -9.23382
R_Forearm  15.2944 -28.007 20.1724
R_Hand  0.20266 7.82612 -9.50552
L_Clavicle  -0.424806 15.5238 -3.26474
L_UpperArm  20.9759 5.53324 0.629897
L_Forearm  4.58071 7.34652 8.5623
L_Hand  0.206172 4.70018 2.49967
L_Thigh  -5.55947 9.37913 -0.0763661
L_Calf  1.72953 -3.87611 29.1952
L_Foot  1.41308 10.1383 -3.68982
L_Toe0  0.505156 0.034446 -6.1361
R_Thigh  8.68527 1.99237 -28.3917
R_Calf  2.53292 12.6359 36.9976
R_Foot  0.320608 2.68046 5.0325
R_Toe0  -1.30869 -0.264273 -17.0509
46
root  -5.70551 32.3936 -42.9557 104.763 8.20409 87.5371
Spine  2.10993 8.46869 -10.7182
Spine1  1.91835 -7.69969 0.719625
Neck  3.97569e-016 0 -2.38542e-015
Head  -2.56983 -1.22242 23.7173
R_Clavicle  0.0646582 -3.05979 0.0550682
R_UpperArm  9.0333 7.76151 -8.47087
R_Forearm  0.390299 -40.4954 19.0799
R_Hand  0.407952 7.81229 -7.90351
L_Clavicle  -0.419928 15.4618 -3.51805
L_UpperArm  20.7327 5.78597 0.32275
L_Forearm  3.61846 8.14525 9.51441
L_Hand  0.161845 4.01735 2.0706
L_Thigh  -2.73192 8.24967 2.92605
L_Calf  1.49718 -3.85645 29.1295
L_Foot  0.424992 10.5769 -7.46321
L_Toe0  0.505156 0.034446 -6.1361
R_Thigh  7.49739 2.54594 -30.3162
R_Calf  5.14742 13.9781 38.1975
R_Foot  0.675046 4.11997 6.76019
R_Toe0  -1.82944 -0.273514 -17.3468
47
root  -5.51897 31.9397 -42.2099 107.354 8.04978 88.113
Spine  2.37846 8.32788 -9.61389
Spine1  2.08134 -9.25842 1.1058
Neck  3.97569e-016 0 -2.38542e-015
Head  -4.89334 -0.450781 21.592
R_Clavicle  0.0567412 -4.54789 -0.169836
R_UpperArm  21.9455 7.9735 -5.45323
R_Forearm  -11.9822 -47.0019 22.8503
R_Hand  0.44166 7.89807 -7.72705
L_Clavicle  -0.419554 15.422 -3.11869
L_UpperArm  21.1504 4.96883 -1.79109
L_Forearm  1.84168 9.68705 11.3713
L_Hand  0.180614 3.57188 2.39545
L_Thigh  2.74628 5.79922 4.96072
L_Calf  0.925405 -3.27234 24.6462
L_Foot  0.104486 9.66093 -7.98619
L_Toe0  0.505156 0.034446 -6.1361
R_Thigh  8.86753 2.51645 -30.7614
R_Calf  5.29146 12.6585 34.8667
R_Foot  1.17046 6.08325 10.2578
R_Toe0  -1.78853 -0.272788 -17.3235
48
root  -5.2058 31.3688 -41.5184 109.994 9.10531 89.0395
Spine  2.60299 8.60277 -6.43448
Spine1  1.95619 -10.7145 2.67204
Neck  3.97569e-016 0 -2.38542e-015
Head  -7.38473 0.762759 17.0042
R_Clavicle  0.0913515 -7.0537 -0.275811
R_UpperArm  29.8338 7.56645 -0.466773
R_Forearm  -14.0924 -47.8726 26.2751
R_Hand  0.0658015 8.4219 -10.9935
L_Clavicle  -0.424724 15.4543 -2.43624
L_UpperArm  21.7411 3.05313 -5.70804
L_Forearm  0.837084 11.7033 13.8452
L_Hand  0.140626 3.69825 1.87661
L_Thigh  6.72624 3.64408 5.81916
L_Calf  1.23587 -2.29286 16.9486
L_Foot  1.30002 8.42013 -2.79456
L_Toe0  0.505156 0.034446 -6.1361
R_Thigh  11.8525 2.5275 -32.2721
R_Calf  4.23667 9.93105 31.3188
R_Foot  1.88429 8.29994 14.2052
R_Toe0  -1.80944 -0.277579 -17.532
49
root  -4.80909 30.9119 -40.8575 111.721 10.1041 90.2777
Spine  2.89185 7.93398 -3.46204
Spine1  1.89374 -10.9871 5.54917
Neck  3.97569e-016 0 -2.38542e-015
Head  -9.5498 1.38047 11.4457
R_Clavicle  0.0937283 -9.00767 -0.598803
R_UpperArm  34.0476 5.82218 5.4496
R_Forearm  -5.78635 -46.4033 26.9536
R_Hand  -0.734067 8.42253 -16.9171
L_Clavicle  -0.426553 15.4789 -2.31466
L_UpperArm  20.2792 1.23101 -9.10854
L_Forearm  1.3496 12.9343 15.3857
L_Hand  0.0547239 3.30911 0.84425
L_Thigh  7.34274 2.23323 5.54078
L_Calf  1.40666 -1.56782 11.5116
L_Foot  2.39192 7.95291 1.61349
L_Toe0  0.505156 0.034446 -6.1361
R_Thigh  11.9216 2.15487 -33.1906
R_Calf  5.61535 8.16925 26.7733
R_Foot  2.7192 10.3153 16.2744
R_Toe0  -1.68523 -0.211822 -15.8534
50
root  -4.38625 30.6071 -40.2654 112.233 9.41873 91.9283
Spine  2.88335 4.25593 -2.20272
Spine1  2.06232 -8.94668 7.89521
Neck  3.97569e-016 0 -2.38542e-015
Head  -10.1233 1.13632 7.26171
R_Clavicle  0.06918 -10.4707 -1.1615
R_UpperArm  36.4258 2.80887 11.6349
R_Forearm  3.98711 -44.9376 26.2297
R_Hand  -1.44214 7.06359 -22.4041
L_Clavicle  -0.407288 15.1323 -2.56421
L_UpperArm  15.97 0.380221 -10.65
L_Forearm  2.32536 12.5182 14.8607
L_Hand  -0.00259858 2.55849 0.0741239
L_Thigh  5.46851 0.630489 5.50696
L_Calf  1.55812 -1.15694 8.6349
L_Foot  3.17166 8.08219 4.31865
L_Toe0  0.505156 0.034446 -6.1361
R_Thigh  11.0957 -0.4267 -29.3693
R_Calf  4.40319 5.04481 15.9639
R_Foot  4.51424 14.4774 11.7761
R_Toe0  -0.272161 -0.102226 -5.13782
51
root  -3.91712 30.2456 -39.719 112.133 7.78105 93.7708
Spine  2.2686 -1.09026 -1.78823
Spine1  2.07594 -5.3641 8.75857
Neck  3.97569e-016 0 -2.38542e-015
Head  -8.93957 0.806707 4.63501
R_Clavicle  0.104364 -12.4906 -1.43667
R_UpperArm  37.5626 -0.833634 18.3672
R_Forearm  11.3417 -42.0522 24.6624
R_Hand  -1.72023 5.53686 -25.1811
L_Clavicle  -0.37878 14.5231 -2.30413
L_UpperArm  11.5835 -0.644263 -11.6642
L_Forearm  2.01677 10.8761 12.8197
L_Hand  -0.0527753 2.36695 -0.658108
L_Thigh  2.82043 -1.31475 5.98494
L_Calf  2.34595 -0.715566 5.64917
L_Foot  4.13466 8.35399 7.45544
L_Toe0  0.505156 0.034446 -6.1361
R_Thigh  10.0577 -4.43869 -22.7263
R_Calf  1.45801 0.896821 2.85067
R_Foot  4.4033 14.3512 1.58785
R_Toe0  4.21528 -2.01917 9.58907
52
root  -3.3893 29.8732 -39.1305 111.738 7.2181 95.4
Spine  1.28673 -4.86574 -1.02285
Spine1  1.61098 -2.20178 9.35055
Neck  3.97569e-016 0 -2.38542e-015
Head  -6.95296 0.803819 2.33338
R_Clavicle  0.198479 -14.9241 -1.18998
R_UpperArm  36.1434 -4.67189 25.6568
R_Forearm  20.3856 -35.4359 22.4927
R_Hand  -1.82984 4.95655 -26.4307
L_Clavicle  -0.367958 13.936 -1.31398
L_UpperArm  9.35507 -3.58759 -13.5673
L_Forearm  0.286008 9.24967 10.8362
L_Hand  -0.147211 2.38158 -1.99116
L_Thigh  0.615197 -2.63532 5.42408
L_Calf  2.95368 -0.248181 2.43221
L_Foot  5.19577 8.43215 11.0548
L_Toe0  0.505156 0.034446 -6.1361
R_Thigh  8.65901 -8.20255 -16.636
R_Calf  -1.99132 -2.55828 -7.97766
R_Foot  2.55707 7.63012 -9.20006
R_Toe0  10.9976 -5.73226 13.3104
53
root  -2.82416 29.8329 -38.3974 110.675 8.19099 96.268
Spine  0.338528 -6.12226 -0.62382
Spine1  0.917972 0.0513163 10.6075
Neck  3.97569e-016 0 -2.38542e-015
Head  -4.41188 0.724673 0.712124
R_Clavicle  0.271759 -16.7078 -0.804078
R_UpperArm  32.2999 -7.87524 32.4363
R_Forearm  32.0261 -27.0766 21.2508
R_Hand  -2.04314 5.20885 -28.3408
L_Clavicle  -0.370808 13.2931 -0.122542
L_UpperArm  7.89491 -7.9461 -15.2566
L_Forearm  -1.38555 8.48211 9.91014
L_Hand  -0.237939 1.67891 -3.6385
L_Thigh  -1.04439 -2.64354 2.63569
L_Calf  2.52607 -0.102223 1.41103
L_Foot  5.87773 8.27485 13.5721
L_Toe0  0.505156 0.034446 -6.1361
R_Thigh  7.34696 -10.6914 -12.6856
R_Calf  -2.30661 -5.005 -15.7488
R_Foot  1.84166 3.94497 -9.25151
R_Toe0  10.5359 -2.44101 -8.15748
54
root  -2.27564 30.1938 -37.5241 108.724 9.38269 96.2357
Spine  -0.679504 -6.76253 -1.40505
Spine1  0.15093 2.76811 11.1942
Neck  3.97569e-016 0 -2.38542e-015
Head  -0.485355 -0.0689493 1.65083
R_Clavicle  0.308671 -17.4975 -0.451139
R_UpperArm  33.1143 -9.3289 37.8349
R_Forearm  37.2786 -22.7187 20.2322
R_Hand  -2.28901 5.63368 -30.3371
L_Clavicle  -0.377361 12.7107 0.684101
L_UpperArm  4.7529 -11.5416 -13.912
L_Forearm  -1.66769 8.64141 10.0991
L_Hand  -0.248203 0.654926 -4.50608
L_Thigh  -2.41834 -1.86458 -1.52076
L_Calf  1.38569 -0.363946 3.30798
L_Foot  6.06745 7.9371 14.6383
L_Toe0  0.505156 0.034446 -6.1361
R_Thigh  6.11061 -12.0003 -9.79214
R_Calf  -1.92583 -5.83224 -18.4604
R_Foot  1.59172 3.75215 -6.33332
R_Toe0  -0.329245 -0.0957293 -16.8034
